<?xml version="1.0" encoding="utf-8"?>
<!-- Generator: Adobe Illustrator 16.0.0, SVG Export Plug-In . SVG Version: 6.00 Build 0)  -->
<!DOCTYPE svg PUBLIC "-//W3C//DTD SVG 1.1//EN" "http://www.w3.org/Graphics/SVG/1.1/DTD/svg11.dtd">
<svg version="1.1" id="Capa_1" xmlns="http://www.w3.org/2000/svg" xmlns:xlink="http://www.w3.org/1999/xlink" x="0px" y="0px"
	 width="129px" height="115.512px" viewBox="0 0 129 115.512" enable-background="new 0 0 129 115.512" xml:space="preserve">
<g>
	<g>
		<path fill="#525252" d="M6.402,126.944c0-1.145,0.715-1.908,1.911-1.908h8.26c6.302,0,10.169,2.48,11.744,7.4
			c0.715,2.098,0.954,4.15,0.954,8.83c0,4.678-0.239,6.73-0.954,8.836c-1.575,4.914-5.442,7.398-11.744,7.398h-8.26
			c-1.196,0-1.911-0.766-1.911-1.91V126.944z M10.939,153.54h5.348c4.294,0,6.779-1.34,7.925-4.869
			c0.526-1.672,0.763-3.535,0.763-7.404c0-3.865-0.236-5.729-0.763-7.398c-1.146-3.533-3.631-4.869-7.925-4.869h-5.348
			c-0.191,0-0.287,0.096-0.287,0.285v23.967C10.652,153.442,10.748,153.54,10.939,153.54z"/>
		<path fill="#525252" d="M36.141,127.42c0-1.621,0.909-2.625,2.39-2.625c1.289,0,2.007,0.766,2.674,2.295l8.976,20.287h0.143
			l8.832-20.287c0.67-1.529,1.34-2.295,2.625-2.295c1.48,0,2.39,1.004,2.39,2.625v28.17c0,1.336-0.813,2.148-2.003,2.148
			c-1.196,0-1.959-0.813-1.959-2.148v-21.15h-0.144l-7.45,16.473c-0.766,1.67-1.385,2.1-2.481,2.1c-1.098,0-1.669-0.43-2.435-2.1
			L40.25,134.44h-0.146v21.15c0,1.336-0.759,2.148-1.956,2.148c-1.193,0-2.007-0.813-2.007-2.148V127.42z"/>
		<path fill="#525252" d="M72.185,126.944c0-1.145,0.716-1.908,1.91-1.908h8.261c6.3,0,10.168,2.48,11.743,7.4
			c0.715,2.098,0.954,4.15,0.954,8.83c0,4.678-0.239,6.73-0.954,8.836c-1.575,4.914-5.443,7.398-11.743,7.398h-8.261
			c-1.194,0-1.91-0.766-1.91-1.91V126.944z M76.721,153.54h5.348c4.297,0,6.78-1.34,7.924-4.869
			c0.526-1.672,0.768-3.535,0.768-7.404c0-3.865-0.241-5.729-0.768-7.398c-1.144-3.533-3.627-4.869-7.924-4.869h-5.348
			c-0.192,0-0.288,0.096-0.288,0.285v23.967C76.433,153.442,76.528,153.54,76.721,153.54z"/>
		<path fill="#525252" d="M101.639,154.971c-0.668-0.479-1.051-1.1-1.051-1.863c0-1.051,0.812-2.006,2.052-2.006
			c0.479,0,0.958,0.191,1.337,0.43c2.342,1.48,4.968,2.529,8.069,2.529c4.581,0,7.259-2.195,7.259-5.535
			c0-2.773-1.529-4.488-6.78-5.303l-1.576-0.234c-6.541-1.004-9.597-3.92-9.597-9.025c0-5.779,4.105-9.455,10.598-9.455
			c3.483,0,6.64,1.004,8.595,2.199c0.812,0.523,1.146,1.145,1.146,1.859c0,1.053-0.814,1.91-1.911,1.91
			c-0.427,0-0.955-0.189-1.385-0.381c-2.052-0.908-4.198-1.623-6.589-1.623c-4.103,0-6.157,2.244-6.157,5.25
			c0,2.725,1.672,4.441,6.732,5.205l1.576,0.24c6.539,1.002,9.641,3.912,9.641,9.119c0,5.631-4.007,9.736-11.888,9.736
			C107.509,158.024,103.929,156.543,101.639,154.971z"/>
	</g>
	<g>
		<g>
			<polygon fill="#2B8FF9" points="112.565,84.684 91.409,97.135 65.008,81.786 65.008,57.2 			"/>
			<polygon fill="#EFA824" points="17.436,84.702 38.575,97.116 65.008,81.823 65.005,57.198 			"/>
			<polygon fill="#EF8F24" points="17.445,84.684 65.008,57.198 43.604,44.553 17.445,59.777 			"/>
			<polygon fill="#2B5EF9" points="112.565,84.684 65.005,57.198 86.349,44.591 112.565,60.004 			"/>
			<polygon fill="#E929CC" points="64.996,1 43.604,13.639 43.604,44.553 64.996,57.198 			"/>
			<polygon fill="#CC29E9" points="64.996,1 64.996,57.198 86.349,44.591 86.349,13.614 			"/>
		</g>
		<path fill="#E929CC" d="M112.565,29.102"/>
		<polygon fill="#73B4F9" points="112.565,60.004 112.565,29.102 86.349,13.614 86.349,44.591 		"/>
		<polygon fill="#E97ED8" points="43.604,44.553 17.445,59.777 17.445,29.098 43.604,13.639 		"/>
		<polygon fill="#EFBD60" points="38.575,97.116 65.008,112.786 91.409,97.135 65.008,81.786 		"/>
	</g>
</g>
</svg>
